<svg width="29" height="29" viewBox="0 0 29 29" fill="none" xmlns="http://www.w3.org/2000/svg">
<rect x="1" y="1" width="27" height="27" rx="5" fill="#D9D9D9" fill-opacity="0.13"/>
<rect x="0.5" y="0.5" width="28" height="28" rx="5.5" stroke="white" stroke-opacity="0.13"/>
<path d="M21.3425 11.875H18.77C18.834 11.5876 18.8692 11.2944 18.875 11C18.875 9.83968 18.4141 8.72688 17.5936 7.90641C16.7731 7.08594 15.6603 6.625 14.5 6.625C13.3397 6.625 12.2269 7.08594 11.4064 7.90641C10.5859 8.72688 10.125 9.83968 10.125 11C10.1308 11.2944 10.166 11.5876 10.23 11.875H7.6575L5.5575 22.375H23.4425L21.3425 11.875ZM14.5 8.375C15.1962 8.375 15.8639 8.65156 16.3562 9.14384C16.8484 9.63613 17.125 10.3038 17.125 11C17.125 12.5138 15.5675 14.6225 14.5 15.8387C13.4325 14.6225 11.875 12.5138 11.875 11C11.875 10.3038 12.1516 9.63613 12.6438 9.14384C13.1361 8.65156 13.8038 8.375 14.5 8.375ZM7.69249 20.625L9.09249 13.625H10.8425C11.6492 15.1388 12.672 16.5271 13.8787 17.7463L14.5 18.3675L15.1212 17.7463C16.3249 16.5265 17.3447 15.1382 18.1487 13.625H19.8987L21.2987 20.625H7.69249Z" fill="url(#paint0_linear_254_262)"/>
<path d="M13.625 11C13.625 11.4832 14.0168 11.875 14.5 11.875C14.9832 11.875 15.375 11.4832 15.375 11C15.375 10.5168 14.9832 10.125 14.5 10.125C14.0168 10.125 13.625 10.5168 13.625 11Z" fill="url(#paint1_linear_254_262)"/>
<defs>
<linearGradient id="paint0_linear_254_262" x1="5.87856" y1="6.625" x2="25.4804" y2="10.5282" gradientUnits="userSpaceOnUse">
<stop stop-color="white"/>
<stop offset="0.515" stop-color="white" stop-opacity="0.39"/>
<stop offset="1" stop-color="white"/>
</linearGradient>
<linearGradient id="paint1_linear_254_262" x1="13.6564" y1="10.125" x2="15.591" y2="10.4642" gradientUnits="userSpaceOnUse">
<stop stop-color="white"/>
<stop offset="0.515" stop-color="white" stop-opacity="0.39"/>
<stop offset="1" stop-color="white"/>
</linearGradient>
</defs>
</svg>
