<svg width="25" height="25" viewBox="0 0 25 25" fill="none" xmlns="http://www.w3.org/2000/svg">
<path d="M21.5 21H20V7.5C20.0074 7.39064 19.978 7.28195 19.9163 7.1913C19.8547 7.10066 19.7644 7.0333 19.66 7L16 5.47V21H15V3.5C15 3.36739 14.9473 3.24021 14.8536 3.14645C14.7598 3.05268 14.6326 3 14.5 3H5.5C5.36739 3 5.24021 3.05268 5.14645 3.14645C5.05268 3.24021 5 3.36739 5 3.5V21H3.5C3.36739 21 3.24021 21.0527 3.14645 21.1464C3.05268 21.2402 3 21.3674 3 21.5C3 21.6326 3.05268 21.7598 3.14645 21.8536C3.24021 21.9473 3.36739 22 3.5 22H21.5C21.6326 22 21.7598 21.9473 21.8536 21.8536C21.9473 21.7598 22 21.6326 22 21.5C22 21.3674 21.9473 21.2402 21.8536 21.1464C21.7598 21.0527 21.6326 21 21.5 21ZM17.5 9H18.5C18.6326 9 18.7598 9.05268 18.8536 9.14645C18.9473 9.24021 19 9.36739 19 9.5C18.9974 9.63181 18.9439 9.7575 18.8507 9.85072C18.7575 9.94394 18.6318 9.99744 18.5 10H17.5C17.3682 9.99744 17.2425 9.94394 17.1493 9.85072C17.0561 9.7575 17.0026 9.63181 17 9.5C17 9.36739 17.0527 9.24021 17.1464 9.14645C17.2402 9.05268 17.3674 9 17.5 9ZM17.5 12H18.5C18.6326 12 18.7598 12.0527 18.8536 12.1464C18.9473 12.2402 19 12.3674 19 12.5C19 12.6326 18.9473 12.7598 18.8536 12.8536C18.7598 12.9473 18.6326 13 18.5 13H17.5C17.3674 13 17.2402 12.9473 17.1464 12.8536C17.0527 12.7598 17 12.6326 17 12.5C17 12.3674 17.0527 12.2402 17.1464 12.1464C17.2402 12.0527 17.3674 12 17.5 12ZM17.5 15H18.5C18.6318 15.0026 18.7575 15.0561 18.8507 15.1493C18.9439 15.2425 18.9974 15.3682 19 15.5C19 15.6326 18.9473 15.7598 18.8536 15.8536C18.7598 15.9473 18.6326 16 18.5 16H17.5C17.3674 16 17.2402 15.9473 17.1464 15.8536C17.0527 15.7598 17 15.6326 17 15.5C17.0026 15.3682 17.0561 15.2425 17.1493 15.1493C17.2425 15.0561 17.3682 15.0026 17.5 15ZM17.5 18H18.5C18.6326 18 18.7598 18.0527 18.8536 18.1464C18.9473 18.2402 19 18.3674 19 18.5C19 18.6326 18.9473 18.7598 18.8536 18.8536C18.7598 18.9473 18.6326 19 18.5 19H17.5C17.3674 19 17.2402 18.9473 17.1464 18.8536C17.0527 18.7598 17 18.6326 17 18.5C17 18.3674 17.0527 18.2402 17.1464 18.1464C17.2402 18.0527 17.3674 18 17.5 18ZM11 6H12C12.1326 6 12.2598 6.05268 12.3536 6.14645C12.4473 6.24021 12.5 6.36739 12.5 6.5C12.5 6.63261 12.4473 6.75979 12.3536 6.85355C12.2598 6.94732 12.1326 7 12 7H11C10.8674 7 10.7402 6.94732 10.6464 6.85355C10.5527 6.75979 10.5 6.63261 10.5 6.5C10.5 6.36739 10.5527 6.24021 10.6464 6.14645C10.7402 6.05268 10.8674 6 11 6ZM11 9H12C12.1326 9 12.2598 9.05268 12.3536 9.14645C12.4473 9.24021 12.5 9.36739 12.5 9.5C12.5 9.63261 12.4473 9.75979 12.3536 9.85355C12.2598 9.94732 12.1326 10 12 10H11C10.8674 10 10.7402 9.94732 10.6464 9.85355C10.5527 9.75979 10.5 9.63261 10.5 9.5C10.5 9.36739 10.5527 9.24021 10.6464 9.14645C10.7402 9.05268 10.8674 9 11 9ZM11 12H12C12.1326 12 12.2598 12.0527 12.3536 12.1464C12.4473 12.2402 12.5 12.3674 12.5 12.5C12.5 12.6326 12.4473 12.7598 12.3536 12.8536C12.2598 12.9473 12.1326 13 12 13H11C10.8674 13 10.7402 12.9473 10.6464 12.8536C10.5527 12.7598 10.5 12.6326 10.5 12.5C10.5 12.3674 10.5527 12.2402 10.6464 12.1464C10.7402 12.0527 10.8674 12 11 12ZM11 15H12C12.1326 15 12.2598 15.0527 12.3536 15.1464C12.4473 15.2402 12.5 15.3674 12.5 15.5C12.5 15.6326 12.4473 15.7598 12.3536 15.8536C12.2598 15.9473 12.1326 16 12 16H11C10.8674 16 10.7402 15.9473 10.6464 15.8536C10.5527 15.7598 10.5 15.6326 10.5 15.5C10.5 15.3674 10.5527 15.2402 10.6464 15.1464C10.7402 15.0527 10.8674 15 11 15ZM7.94 6H9C9.13261 6 9.25979 6.05268 9.35355 6.14645C9.44732 6.24021 9.5 6.36739 9.5 6.5C9.5 6.63261 9.44732 6.75979 9.35355 6.85355C9.25979 6.94732 9.13261 7 9 7H8C7.86739 7 7.74021 6.94732 7.64645 6.85355C7.55268 6.75979 7.5 6.63261 7.5 6.5C7.5 6.36739 7.55268 6.24021 7.64645 6.14645C7.74021 6.05268 7.86739 6 8 6H7.94ZM7.94 9H9C9.13261 9 9.25979 9.05268 9.35355 9.14645C9.44732 9.24021 9.5 9.36739 9.5 9.5C9.5 9.63261 9.44732 9.75979 9.35355 9.85355C9.25979 9.94732 9.13261 10 9 10H8C7.86739 10 7.74021 9.94732 7.64645 9.85355C7.55268 9.75979 7.5 9.63261 7.5 9.5C7.5 9.36739 7.55268 9.24021 7.64645 9.14645C7.74021 9.05268 7.86739 9 8 9H7.94ZM7.94 12H9C9.13261 12 9.25979 12.0527 9.35355 12.1464C9.44732 12.2402 9.5 12.3674 9.5 12.5C9.5 12.6326 9.44732 12.7598 9.35355 12.8536C9.25979 12.9473 9.13261 13 9 13H8C7.86739 13 7.74021 12.9473 7.64645 12.8536C7.55268 12.7598 7.5 12.6326 7.5 12.5C7.5 12.3674 7.55268 12.2402 7.64645 12.1464C7.74021 12.0527 7.86739 12 8 12H7.94ZM7.94 15H9C9.13261 15 9.25979 15.0527 9.35355 15.1464C9.44732 15.2402 9.5 15.3674 9.5 15.5C9.5 15.6326 9.44732 15.7598 9.35355 15.8536C9.25979 15.9473 9.13261 16 9 16H8C7.86739 16 7.74021 15.9473 7.64645 15.8536C7.55268 15.7598 7.5 15.6326 7.5 15.5C7.5 15.3674 7.55268 15.2402 7.64645 15.1464C7.74021 15.0527 7.86739 15 8 15H7.94ZM10.5 21V19H9.5V21H8.5V18.47C8.50765 18.3427 8.56369 18.2231 8.65664 18.1357C8.7496 18.0483 8.87243 17.9998 9 18H11C11.1326 18 11.2598 18.0527 11.3536 18.1464C11.4473 18.2402 11.5 18.3674 11.5 18.5V21H10.5Z" fill="url(#paint0_linear_332_851)"/>
<defs>
<linearGradient id="paint0_linear_332_851" x1="3.34108" y1="3" x2="24.3448" y2="6.6831" gradientUnits="userSpaceOnUse">
<stop stop-color="white"/>
<stop offset="0.515" stop-color="white" stop-opacity="0.39"/>
<stop offset="1" stop-color="white"/>
</linearGradient>
</defs>
</svg>
