<svg width="29" height="29" viewBox="0 0 29 29" fill="none" xmlns="http://www.w3.org/2000/svg">
<rect x="1" y="1" width="27" height="27" rx="5" fill="#D9D9D9" fill-opacity="0.13"/>
<rect x="0.5" y="0.5" width="28" height="28" rx="5.5" stroke="white" stroke-opacity="0.13"/>
<path d="M22.7 11.7812L22.4596 11.9273L15.2596 16.3023L15.0067 16.456L14.7503 16.3082L14.8436 16.1463L14.8436 16.1463C14.7502 16.3082 14.7502 16.3081 14.7502 16.3081L14.7499 16.308L14.7489 16.3074L14.745 16.3051L14.7294 16.2961L14.669 16.2612L14.4398 16.1287C14.2424 16.0145 13.9606 15.8511 13.6223 15.6544C12.946 15.2609 12.044 14.7339 11.142 14.1998C10.2406 13.6661 9.3364 13.1237 8.65684 12.7002C8.31798 12.489 8.02963 12.3041 7.8241 12.1632C7.72277 12.0937 7.63255 12.0288 7.56433 11.9734C7.53186 11.9471 7.49145 11.9125 7.45505 11.8737C7.43755 11.855 7.40861 11.8224 7.3813 11.7789C7.36461 11.7523 7.29912 11.6473 7.3 11.4974M22.7 11.7812L22.2 11.2812H22.0671L21.9404 11.0727L15.18 15.1806L15 15.0712M22.7 11.7812V11.5V11.2812V10.3924L21.9404 10.854L15 15.0712M22.7 11.7812L15 15.0712M7.3 11.4974C7.30003 11.4917 7.30017 11.4858 7.3004 11.4799L7.67025 11.4948L7.8 11.2812H8.24772C8.23926 11.2647 8.2322 11.2535 8.2289 11.2482L8.22834 11.2473C8.20769 11.2144 8.18883 11.1943 8.18471 11.1899C8.18067 11.1856 8.17825 11.1833 8.17826 11.1833C8.17828 11.1833 8.18297 11.1876 8.19449 11.1969C8.2309 11.2265 8.29466 11.2733 8.38961 11.3384C8.57662 11.4667 8.85002 11.6423 9.18575 11.8515C9.85536 12.2688 10.7517 12.8065 11.6514 13.3393C12.5505 13.8716 13.4501 14.3973 14.1252 14.79C14.3935 14.946 14.6262 15.0811 14.8092 15.1871L15 15.0712M7.3 11.4974V11.2812V10.3924L8.05964 10.854L15 15.0712M7.3 11.4974V11.5H7.66708L15 15.0712M6.509 9.75043V9.75C6.509 9.06923 7.07158 8.5 7.8 8.5H22.2C22.9317 8.5 23.5 9.07245 23.5 9.75V20.25C23.5 20.9275 22.9317 21.5 22.2 21.5H7.8C7.06834 21.5 6.50011 20.9277 6.5 20.2502C6.5 20.2501 6.5 20.2501 6.5 20.25L6.509 9.75043Z" stroke="url(#paint0_linear_254_199)"/>
<defs>
<linearGradient id="paint0_linear_254_199" x1="6.32313" y1="8" x2="25.8411" y2="12.4004" gradientUnits="userSpaceOnUse">
<stop stop-color="white"/>
<stop offset="0.515" stop-color="white" stop-opacity="0.39"/>
<stop offset="1" stop-color="white"/>
</linearGradient>
</defs>
</svg>
