<svg width="30" height="29" viewBox="0 0 30 29" fill="none" xmlns="http://www.w3.org/2000/svg">
<rect x="1.5" y="1" width="27" height="27" rx="5" fill="#D9D9D9" fill-opacity="0.13"/>
<rect x="1" y="0.5" width="28" height="28" rx="5.5" stroke="white" stroke-opacity="0.13"/>
<path d="M15.4999 7.28564C16.8995 7.28564 18.1902 7.63051 19.3721 8.32024C20.5541 9.00997 21.4899 9.9458 22.1796 11.1277C22.8693 12.3096 23.2142 13.6004 23.2142 14.9999C23.2142 16.3995 22.8693 17.6902 22.1796 18.8721C21.4899 20.0541 20.5541 20.9899 19.3721 21.6796C18.1902 22.3693 16.8995 22.7142 15.4999 22.7142C14.1004 22.7142 12.8096 22.3693 11.6277 21.6796C10.4458 20.9899 9.50997 20.0541 8.82024 18.8721C8.13051 17.6902 7.78564 16.3995 7.78564 14.9999C7.78564 13.6004 8.13051 12.3096 8.82024 11.1277C9.50997 9.9458 10.4458 9.00997 11.6277 8.32024C12.8096 7.63051 14.1004 7.28564 15.4999 7.28564ZM18.2522 12.5189C18.2388 12.5256 18.207 12.5574 18.1567 12.6143C18.1065 12.6712 18.0613 12.7031 18.0211 12.7098C18.0345 12.7098 18.0496 12.693 18.0663 12.6595C18.0831 12.626 18.0998 12.5892 18.1166 12.549C18.1333 12.5089 18.145 12.4854 18.1517 12.4787C18.1919 12.4318 18.2656 12.3816 18.3727 12.3281C18.4664 12.2879 18.6406 12.2477 18.895 12.2075C19.1227 12.1539 19.2935 12.1908 19.4073 12.318C19.3939 12.3046 19.4257 12.2611 19.5027 12.1874C19.5797 12.1138 19.6283 12.0736 19.6484 12.0669C19.6685 12.0535 19.7187 12.0384 19.799 12.0217C19.8794 12.005 19.9296 11.9798 19.9497 11.9464L19.9698 11.7254C19.8894 11.7321 19.8308 11.7086 19.794 11.6551C19.7572 11.6015 19.7354 11.5312 19.7287 11.4441C19.7287 11.4575 19.7086 11.4843 19.6685 11.5245C19.6685 11.4776 19.6534 11.4508 19.6233 11.4441C19.5931 11.4374 19.5546 11.4408 19.5077 11.4542C19.4609 11.4676 19.4307 11.4709 19.4173 11.4642C19.3504 11.4441 19.3002 11.419 19.2667 11.3889C19.2332 11.3587 19.2064 11.3035 19.1863 11.2231C19.1662 11.1428 19.1528 11.0926 19.1461 11.0725C19.1327 11.039 19.1009 11.0038 19.0507 10.967C19.0005 10.9302 18.9687 10.895 18.9553 10.8615C18.9486 10.8481 18.9402 10.8297 18.9302 10.8063C18.9201 10.7829 18.9101 10.7611 18.9 10.741C18.89 10.7209 18.8766 10.7025 18.8599 10.6858C18.8431 10.669 18.8247 10.6606 18.8046 10.6606C18.7845 10.6606 18.7611 10.6774 18.7343 10.7109C18.7075 10.7443 18.6824 10.7778 18.659 10.8113C18.6355 10.8448 18.6205 10.8615 18.6138 10.8615C18.5937 10.8481 18.5736 10.8431 18.5535 10.8465C18.5334 10.8498 18.5183 10.8532 18.5083 10.8565C18.4983 10.8599 18.4832 10.8699 18.4631 10.8866C18.443 10.9034 18.4263 10.9151 18.4129 10.9218C18.3928 10.9352 18.3643 10.9452 18.3275 10.9519C18.2907 10.9586 18.2622 10.9653 18.2421 10.972C18.3426 10.9385 18.3392 10.9017 18.2321 10.8615C18.1651 10.8348 18.1115 10.8247 18.0714 10.8314C18.1316 10.8046 18.1567 10.7644 18.1467 10.7109C18.1366 10.6573 18.1082 10.6104 18.0613 10.5702H18.1115C18.1048 10.5435 18.0764 10.515 18.0262 10.4849C17.9759 10.4547 17.9173 10.4263 17.8504 10.3995C17.7834 10.3727 17.7399 10.3526 17.7198 10.3392C17.6662 10.3057 17.5524 10.2739 17.3783 10.2438C17.2042 10.2137 17.0937 10.212 17.0468 10.2388C17.0133 10.2789 16.9983 10.3141 17.0016 10.3442C17.005 10.3744 17.0183 10.4212 17.0418 10.4849C17.0652 10.5485 17.0769 10.5903 17.0769 10.6104C17.0836 10.6506 17.0652 10.6941 17.0217 10.741C16.9782 10.7879 16.9564 10.8281 16.9564 10.8615C16.9564 10.9084 17.0033 10.9603 17.097 11.0172C17.1908 11.0741 17.2243 11.1461 17.1975 11.2332C17.1774 11.2868 17.1238 11.3403 17.0368 11.3939C16.9497 11.4475 16.8961 11.4877 16.876 11.5144C16.8426 11.568 16.8375 11.63 16.861 11.7003C16.8844 11.7706 16.9196 11.8258 16.9664 11.866C16.9798 11.8794 16.9849 11.8928 16.9815 11.9062C16.9782 11.9196 16.9664 11.9346 16.9464 11.9514C16.9263 11.9681 16.9079 11.9815 16.8911 11.9916C16.8744 12.0016 16.8526 12.0133 16.8258 12.0267L16.7957 12.0468C16.722 12.0803 16.6534 12.0602 16.5898 11.9865C16.5262 11.9129 16.481 11.8258 16.4542 11.7254C16.4073 11.558 16.3537 11.4575 16.2935 11.424C16.1394 11.3705 16.0423 11.3738 16.0022 11.4341C15.9687 11.347 15.8314 11.26 15.5903 11.1729C15.4229 11.1127 15.2287 11.0993 15.0077 11.1327C15.0479 11.126 15.0479 11.0758 15.0077 10.9821C14.9609 10.8816 14.8973 10.8414 14.8169 10.8615C14.837 10.8214 14.8504 10.7628 14.8571 10.6858C14.8638 10.6087 14.8671 10.5635 14.8671 10.5502C14.8872 10.4631 14.9274 10.3861 14.9877 10.3191C14.9943 10.3124 15.0178 10.284 15.058 10.2337C15.0981 10.1835 15.13 10.1383 15.1534 10.0981C15.1768 10.058 15.1785 10.0379 15.1584 10.0379C15.3928 10.0647 15.5602 10.0278 15.6606 9.92739C15.6941 9.8939 15.7326 9.83698 15.7762 9.75663C15.8197 9.67627 15.8548 9.61935 15.8816 9.58587C15.9419 9.54569 15.9888 9.52727 16.0223 9.53062C16.0557 9.53397 16.1043 9.55239 16.1679 9.58587C16.2315 9.61935 16.2801 9.63609 16.3135 9.63609C16.4073 9.64279 16.4592 9.60596 16.4692 9.5256C16.4793 9.44524 16.4542 9.37828 16.3939 9.32471C16.4743 9.3314 16.4843 9.27448 16.424 9.15395C16.3906 9.10707 16.3638 9.07694 16.3437 9.06355C16.2633 9.03676 16.1729 9.0535 16.0725 9.11377C16.0189 9.14056 16.0256 9.16734 16.0926 9.19413C16.0859 9.18743 16.0541 9.22259 15.9971 9.2996C15.9402 9.3766 15.885 9.4352 15.8314 9.47538C15.7778 9.51556 15.7243 9.49881 15.6707 9.42515C15.664 9.41846 15.6456 9.37326 15.6154 9.28955C15.5853 9.20585 15.5535 9.16064 15.52 9.15395C15.4664 9.15395 15.4129 9.20417 15.3593 9.30462C15.3794 9.25105 15.3426 9.20082 15.2488 9.15395C15.1551 9.10707 15.0747 9.08029 15.0077 9.07359C15.135 8.99323 15.1082 8.90283 14.9274 8.80239C14.8805 8.7756 14.8119 8.75886 14.7215 8.75216C14.6311 8.74547 14.5658 8.75886 14.5256 8.79234C14.4921 8.83922 14.4737 8.87772 14.4704 8.90785C14.467 8.93799 14.4837 8.96477 14.5206 8.98821C14.5574 9.01165 14.5926 9.03006 14.626 9.04346C14.6595 9.05685 14.698 9.07024 14.7416 9.08364C14.7851 9.09703 14.8135 9.10707 14.8269 9.11377C14.9207 9.18073 14.9475 9.22761 14.9073 9.25439C14.8939 9.26109 14.8654 9.27281 14.8219 9.28955C14.7784 9.30629 14.7399 9.32136 14.7064 9.33475C14.6729 9.34814 14.6528 9.36154 14.6461 9.37493C14.626 9.40172 14.626 9.44859 14.6461 9.51556C14.6662 9.58252 14.6595 9.62939 14.626 9.65618C14.5926 9.6227 14.5624 9.5641 14.5356 9.4804C14.5089 9.39669 14.4854 9.34145 14.4653 9.31466C14.5122 9.37493 14.4285 9.39502 14.2142 9.37493L14.1138 9.36489C14.087 9.36489 14.0334 9.37158 13.9531 9.38497C13.8727 9.39837 13.8041 9.40172 13.7471 9.39502C13.6902 9.38832 13.645 9.36154 13.6115 9.31466C13.5848 9.26109 13.5848 9.19413 13.6115 9.11377C13.6182 9.08698 13.6316 9.08029 13.6517 9.09368C13.6249 9.07359 13.5881 9.04178 13.5412 8.99826C13.4943 8.95473 13.4609 8.92627 13.4408 8.91288C13.1327 9.01332 12.818 9.1506 12.4966 9.32471C12.5368 9.3314 12.5769 9.32806 12.6171 9.31466C12.6506 9.30127 12.6941 9.27951 12.7477 9.24937C12.8013 9.21924 12.8348 9.20082 12.8481 9.19413C13.0758 9.10038 13.2164 9.07694 13.27 9.12381L13.3202 9.07359C13.414 9.18073 13.481 9.26444 13.5211 9.32471C13.4743 9.29792 13.3738 9.29457 13.2198 9.31466C13.0859 9.35484 13.0122 9.39502 12.9988 9.4352C13.0457 9.51556 13.0624 9.57582 13.049 9.616C13.0223 9.59591 12.9837 9.56243 12.9335 9.51556C12.8833 9.46868 12.8348 9.43185 12.7879 9.40506C12.741 9.37828 12.6908 9.36154 12.6372 9.35484C12.5301 9.35484 12.4564 9.35819 12.4162 9.36489C11.4385 9.9006 10.6517 10.6439 10.0557 11.5948C10.1026 11.6417 10.1428 11.6685 10.1763 11.6752C10.2031 11.6818 10.2198 11.712 10.2265 11.7656C10.2332 11.8191 10.2416 11.856 10.2516 11.876C10.2616 11.8961 10.3002 11.8861 10.3671 11.8459C10.4274 11.8995 10.4374 11.9631 10.3973 12.0368C10.4039 12.0301 10.5513 12.1205 10.8392 12.308C10.9664 12.4218 11.0368 12.4921 11.0502 12.5189C11.0702 12.5926 11.0368 12.6528 10.9497 12.6997C10.943 12.6863 10.9129 12.6562 10.8593 12.6093C10.8057 12.5624 10.7756 12.549 10.7689 12.5691C10.7488 12.6026 10.7505 12.6646 10.7739 12.755C10.7974 12.8454 10.8325 12.8872 10.8794 12.8805C10.8325 12.8805 10.8007 12.9341 10.784 13.0412C10.7672 13.1484 10.7589 13.2672 10.7589 13.3978C10.7589 13.5284 10.7555 13.6071 10.7488 13.6339L10.7689 13.6439C10.7488 13.7243 10.7672 13.8398 10.8241 13.9904C10.8811 14.1411 10.9531 14.2064 11.0401 14.1863C10.9531 14.2064 11.02 14.3504 11.241 14.6182C11.2812 14.6718 11.308 14.7019 11.3214 14.7086C11.3414 14.722 11.3816 14.7471 11.4419 14.784C11.5022 14.8208 11.5524 14.8543 11.5926 14.8844C11.6327 14.9146 11.6662 14.9497 11.693 14.9899C11.7198 15.0234 11.7533 15.0987 11.7935 15.2159C11.8336 15.3331 11.8805 15.4118 11.9341 15.4519C11.9207 15.4921 11.9525 15.5591 12.0295 15.6528C12.1065 15.7466 12.1417 15.8236 12.135 15.8839C12.1283 15.8839 12.1199 15.8872 12.1099 15.8939C12.0998 15.9006 12.0914 15.9039 12.0848 15.9039C12.1048 15.9508 12.1567 15.9977 12.2404 16.0446C12.3241 16.0914 12.376 16.135 12.3961 16.1752C12.4028 16.1952 12.4095 16.2287 12.4162 16.2756C12.4229 16.3225 12.433 16.3593 12.4464 16.3861C12.4598 16.4129 12.4865 16.4196 12.5267 16.4062C12.5401 16.2723 12.4598 16.0647 12.2856 15.7834C12.1852 15.616 12.1283 15.5189 12.1149 15.4921C12.0948 15.4586 12.0764 15.4067 12.0596 15.3364C12.0429 15.2661 12.0278 15.2176 12.0144 15.1908C12.0278 15.1908 12.0479 15.1958 12.0747 15.2058C12.1015 15.2159 12.13 15.2276 12.1601 15.241C12.1902 15.2544 12.2153 15.2678 12.2354 15.2812C12.2555 15.2946 12.2622 15.3046 12.2555 15.3113C12.2354 15.3582 12.2421 15.4168 12.2756 15.4871C12.3091 15.5574 12.3493 15.6193 12.3961 15.6729C12.443 15.7265 12.4999 15.7901 12.5669 15.8638C12.6339 15.9374 12.674 15.981 12.6874 15.9943C12.7276 16.0345 12.7745 16.0998 12.8281 16.1902C12.8816 16.2806 12.8816 16.3258 12.8281 16.3258C12.8883 16.3258 12.9553 16.3593 13.0289 16.4263C13.1026 16.4932 13.1595 16.5602 13.1997 16.6272C13.2332 16.6807 13.26 16.7678 13.2801 16.8883C13.3002 17.0089 13.3169 17.0892 13.3303 17.1294C13.3437 17.1763 13.3721 17.2215 13.4157 17.265C13.4592 17.3085 13.501 17.3403 13.5412 17.3604L13.7019 17.4408L13.8325 17.5111C13.866 17.5245 13.9279 17.5596 14.0183 17.6166C14.1087 17.6735 14.1807 17.712 14.2343 17.7321C14.3013 17.7589 14.3548 17.7723 14.395 17.7723C14.4352 17.7723 14.4837 17.7639 14.5407 17.7471C14.5976 17.7304 14.6428 17.7187 14.6763 17.712C14.7767 17.6986 14.8738 17.7488 14.9676 17.8627C15.0613 17.9765 15.1316 18.0468 15.1785 18.0736C15.4196 18.2008 15.6037 18.2377 15.731 18.1841C15.7176 18.1908 15.7192 18.2159 15.736 18.2594C15.7527 18.3029 15.7795 18.3548 15.8163 18.4151C15.8532 18.4754 15.8833 18.5239 15.9067 18.5608C15.9302 18.5976 15.9486 18.626 15.962 18.6461C15.9955 18.6863 16.0557 18.7365 16.1428 18.7968C16.2298 18.8571 16.2901 18.9073 16.3236 18.9475C16.3638 18.9207 16.3872 18.8906 16.3939 18.8571C16.3738 18.9106 16.3973 18.9776 16.4642 19.058C16.5312 19.1383 16.5914 19.1718 16.645 19.1584C16.7388 19.1383 16.7856 19.0312 16.7856 18.837C16.5781 18.9374 16.414 18.8772 16.2935 18.6562C16.2935 18.6495 16.2851 18.6311 16.2683 18.6009C16.2516 18.5708 16.2382 18.5423 16.2282 18.5156C16.2181 18.4888 16.2098 18.4603 16.2031 18.4302C16.1964 18.4 16.1964 18.3749 16.2031 18.3548C16.2098 18.3348 16.2265 18.3247 16.2533 18.3247C16.3135 18.3247 16.347 18.313 16.3537 18.2896C16.3604 18.2661 16.3537 18.2243 16.3336 18.164C16.3135 18.1037 16.3002 18.0602 16.2935 18.0334C16.2868 17.9798 16.2499 17.9129 16.183 17.8325C16.116 17.7522 16.0758 17.7019 16.0624 17.6818C16.0289 17.7421 15.9754 17.7689 15.9017 17.7622C15.8281 17.7555 15.7745 17.7254 15.741 17.6718C15.741 17.6785 15.736 17.6969 15.7259 17.7271C15.7159 17.7572 15.7109 17.7789 15.7109 17.7923C15.6238 17.7923 15.5736 17.789 15.5602 17.7823C15.5669 17.7622 15.5753 17.7036 15.5853 17.6065C15.5954 17.5094 15.6071 17.4341 15.6205 17.3805C15.6272 17.3537 15.6456 17.3135 15.6757 17.26C15.7058 17.2064 15.731 17.1579 15.751 17.1143C15.7711 17.0708 15.7845 17.0289 15.7912 16.9888C15.7979 16.9486 15.7829 16.9168 15.746 16.8933C15.7092 16.8699 15.6506 16.8615 15.5702 16.8682C15.443 16.8749 15.356 16.9419 15.3091 17.0691C15.3024 17.0892 15.2923 17.1244 15.2789 17.1746C15.2656 17.2248 15.2488 17.2633 15.2287 17.2901C15.2086 17.3169 15.1785 17.3403 15.1383 17.3604C15.0914 17.3805 15.0111 17.3872 14.8973 17.3805C14.7834 17.3738 14.7031 17.3571 14.6562 17.3303C14.5691 17.2767 14.4938 17.1796 14.4302 17.039C14.3666 16.8984 14.3348 16.7745 14.3348 16.6673C14.3348 16.6004 14.3431 16.5116 14.3599 16.4012C14.3766 16.2907 14.3866 16.207 14.39 16.15C14.3933 16.0931 14.3749 16.0111 14.3348 15.9039C14.3548 15.8906 14.385 15.8587 14.4252 15.8085C14.4653 15.7583 14.4988 15.7231 14.5256 15.7031C14.539 15.6964 14.5541 15.6913 14.5708 15.688C14.5875 15.6846 14.6026 15.6846 14.616 15.688C14.6294 15.6913 14.6428 15.6863 14.6562 15.6729C14.6696 15.6595 14.6796 15.6394 14.6863 15.6127C14.6796 15.606 14.6662 15.5959 14.6461 15.5825C14.626 15.5624 14.6127 15.5524 14.606 15.5524C14.6528 15.5725 14.7483 15.5675 14.8922 15.5373C15.0362 15.5072 15.1283 15.5122 15.1685 15.5524C15.2689 15.626 15.3426 15.6193 15.3894 15.5323C15.3894 15.5256 15.3811 15.4938 15.3643 15.4369C15.3476 15.38 15.3459 15.3348 15.3593 15.3013C15.3928 15.4821 15.4899 15.5122 15.6506 15.3917C15.6707 15.4118 15.7226 15.4285 15.8063 15.4419C15.89 15.4553 15.9486 15.472 15.9821 15.4921C16.0022 15.5055 16.0256 15.5239 16.0524 15.5474C16.0792 15.5708 16.0976 15.5859 16.1076 15.5926C16.1177 15.5993 16.1344 15.5976 16.1579 15.5875C16.1813 15.5775 16.2098 15.5557 16.2432 15.5223C16.3102 15.616 16.3504 15.6964 16.3638 15.7633C16.4374 16.0312 16.501 16.1785 16.5546 16.2053C16.6015 16.2254 16.6383 16.2321 16.6651 16.2254C16.6919 16.2187 16.707 16.1869 16.7103 16.13C16.7137 16.073 16.7137 16.0262 16.7103 15.9893C16.707 15.9525 16.7019 15.9106 16.6952 15.8638L16.6852 15.7834V15.6026L16.6752 15.5223C16.5747 15.5022 16.5128 15.462 16.4893 15.4017C16.4659 15.3414 16.4709 15.2795 16.5044 15.2159C16.5379 15.1523 16.5881 15.0903 16.6551 15.0301C16.6618 15.0234 16.6885 15.0116 16.7354 14.9949C16.7823 14.9782 16.8342 14.9564 16.8911 14.9296C16.948 14.9028 16.9899 14.876 17.0167 14.8493C17.1573 14.722 17.2075 14.6048 17.1673 14.4977C17.2142 14.4977 17.251 14.4676 17.2778 14.4073C17.2711 14.4073 17.2544 14.3973 17.2276 14.3772C17.2008 14.3571 17.1757 14.3403 17.1523 14.3269C17.1288 14.3135 17.1138 14.3068 17.1071 14.3068C17.1673 14.2734 17.174 14.2198 17.1272 14.1461C17.1606 14.126 17.1858 14.0892 17.2025 14.0356C17.2192 13.9821 17.2443 13.9486 17.2778 13.9352C17.3381 14.0156 17.4084 14.0223 17.4888 13.9553C17.5356 13.9017 17.539 13.8481 17.4988 13.7946C17.5323 13.7477 17.6009 13.7125 17.7047 13.6891C17.8085 13.6657 17.8705 13.6339 17.8906 13.5937C17.9374 13.6071 17.9642 13.6004 17.9709 13.5736C17.9776 13.5468 17.981 13.5066 17.981 13.4531C17.981 13.3995 17.991 13.3593 18.0111 13.3325C18.0379 13.299 18.0881 13.2689 18.1618 13.2421C18.2354 13.2153 18.2789 13.1986 18.2923 13.1919L18.4631 13.0814C18.4832 13.0546 18.4832 13.0412 18.4631 13.0412C18.5836 13.0546 18.6874 13.0178 18.7745 12.9307C18.8414 12.8571 18.8214 12.7901 18.7142 12.7298C18.7343 12.6897 18.7243 12.6579 18.6841 12.6344C18.6439 12.611 18.5937 12.5926 18.5334 12.5792C18.5535 12.5725 18.592 12.5708 18.6489 12.5741C18.7058 12.5775 18.741 12.5725 18.7544 12.5591C18.8548 12.4921 18.8314 12.4385 18.6841 12.3984C18.5702 12.3649 18.4263 12.4051 18.2522 12.5189ZM16.6149 21.3281C17.9943 21.087 19.1696 20.4542 20.1406 19.4296C20.1205 19.4095 20.0786 19.3945 20.015 19.3844C19.9514 19.3744 19.9095 19.3627 19.8894 19.3493C19.7689 19.3024 19.6885 19.2756 19.6484 19.2689C19.6551 19.222 19.6467 19.1785 19.6233 19.1383C19.5998 19.0981 19.573 19.068 19.5429 19.0479C19.5128 19.0278 19.4709 19.001 19.4173 18.9676C19.3638 18.9341 19.3269 18.9106 19.3068 18.8973C19.2935 18.8839 19.27 18.8638 19.2365 18.837C19.2031 18.8102 19.1796 18.7918 19.1662 18.7817C19.1528 18.7717 19.1277 18.7566 19.0909 18.7365C19.0541 18.7164 19.0256 18.7098 19.0055 18.7164C18.9854 18.7231 18.9519 18.7265 18.9051 18.7265L18.8749 18.7365C18.8548 18.7432 18.8364 18.7516 18.8197 18.7616C18.8029 18.7717 18.7845 18.7817 18.7644 18.7918C18.7443 18.8018 18.731 18.8119 18.7243 18.8219C18.7176 18.832 18.7176 18.8403 18.7243 18.847C18.5836 18.7332 18.4631 18.6595 18.3627 18.626C18.3292 18.6193 18.2923 18.6009 18.2522 18.5708C18.212 18.5407 18.1768 18.5172 18.1467 18.5005C18.1166 18.4837 18.0831 18.4787 18.0462 18.4854C18.0094 18.4921 17.9709 18.5156 17.9307 18.5557C17.8973 18.5892 17.8772 18.6394 17.8705 18.7064C17.8638 18.7734 17.8571 18.8169 17.8504 18.837C17.8035 18.8035 17.8035 18.7449 17.8504 18.6612C17.8973 18.5775 17.9039 18.5156 17.8705 18.4754C17.8504 18.4352 17.8152 18.4201 17.765 18.4302C17.7148 18.4402 17.6746 18.4553 17.6445 18.4754C17.6143 18.4955 17.5758 18.5239 17.5289 18.5608C17.4821 18.5976 17.4519 18.6193 17.4385 18.626C17.4252 18.6327 17.3967 18.6512 17.3532 18.6813C17.3096 18.7114 17.2812 18.7365 17.2678 18.7566C17.2477 18.7834 17.2276 18.8236 17.2075 18.8772C17.1874 18.9307 17.1707 18.9676 17.1573 18.9877C17.1439 18.9609 17.1054 18.9391 17.0418 18.9224C16.9782 18.9056 16.9464 18.8872 16.9464 18.8671C16.9598 18.9341 16.9731 19.0513 16.9865 19.2187C16.9999 19.3861 17.0167 19.5133 17.0368 19.6004C17.0836 19.808 17.0435 19.9687 16.9162 20.0825C16.7354 20.2499 16.6383 20.3839 16.6249 20.4843C16.5981 20.6316 16.6383 20.7187 16.7455 20.7455C16.7455 20.7923 16.7187 20.861 16.6651 20.9514C16.6115 21.0418 16.5881 21.1138 16.5948 21.1673C16.5948 21.2075 16.6015 21.2611 16.6149 21.3281Z" fill="url(#paint0_linear_332_821)"/>
<defs>
<linearGradient id="paint0_linear_332_821" x1="8.06261" y1="7.28564" x2="25.1183" y2="10.2764" gradientUnits="userSpaceOnUse">
<stop stop-color="white"/>
<stop offset="0.515" stop-color="white" stop-opacity="0.39"/>
<stop offset="1" stop-color="white"/>
</linearGradient>
</defs>
</svg>
