<svg width="29" height="29" viewBox="0 0 29 29" fill="none" xmlns="http://www.w3.org/2000/svg">
<rect x="1" y="1" width="27" height="27" rx="10" fill="#D9D9D9" fill-opacity="0.13"/>
<rect x="0.5" y="0.5" width="28" height="28" rx="10.5" stroke="white" stroke-opacity="0.13"/>
<path d="M11.8503 13.5325C12.771 13.0525 12.7784 13.045 12.8757 12.94C12.9631 12.8504 13.0267 12.7403 13.0607 12.6198C13.0947 12.4993 13.098 12.3722 13.0704 12.25L11.8503 13.5325ZM11.8503 13.5325C12.5876 15.1531 13.8811 16.4546 15.4955 17.1999L11.8503 13.5325ZM18.5314 21.4999L18.5276 21.4999C15.6044 21.4961 12.8018 20.3308 10.7344 18.2594C8.66716 16.188 7.50388 13.3795 7.5 10.4497C7.50008 9.66714 7.81039 8.91683 8.36237 8.36376C8.91439 7.81064 9.66287 7.50009 10.4431 7.5001L10.4469 7.50007C10.6074 7.49885 10.7677 7.51344 10.9254 7.54365L10.9357 7.54563L10.9461 7.54718C11.0973 7.5696 11.246 7.60683 11.3899 7.65834L11.3899 7.65835L11.3925 7.65928C11.4332 7.67359 11.4696 7.69833 11.498 7.73118L11.8762 7.40408L11.498 7.73118C11.5265 7.76403 11.5459 7.80383 11.5543 7.84669L11.5558 7.85395L11.5574 7.86117L12.5827 12.3604C12.5827 12.3604 12.5827 12.3605 12.5827 12.3605C12.5919 12.4013 12.5908 12.4438 12.5794 12.4841C12.5681 12.5244 12.5468 12.5611 12.5178 12.5909L12.5177 12.5908L12.509 12.6001C12.4983 12.6117 12.493 12.6172 12.4907 12.6196C12.4889 12.621 12.4847 12.624 12.4773 12.6288C12.4657 12.6364 12.448 12.6474 12.4206 12.6633C12.3041 12.731 12.0853 12.8461 11.6191 13.0891L11.199 13.3082L11.3952 13.7395C12.182 15.4691 13.5626 16.8582 15.2859 17.6539L15.718 17.8534L15.9385 17.4317C16.1848 16.961 16.3016 16.7397 16.3703 16.6216C16.3995 16.5714 16.4122 16.5537 16.4154 16.5494C16.4177 16.5471 16.4219 16.5431 16.4349 16.531L16.435 16.5311L16.4441 16.5222C16.4738 16.4931 16.5103 16.472 16.5501 16.4607C16.5898 16.4495 16.6316 16.4484 16.6718 16.4574C16.6719 16.4575 16.672 16.4575 16.6722 16.4575L21.1607 17.4845C21.1609 17.4845 21.1611 17.4845 21.1613 17.4846C21.202 17.4942 21.2397 17.5139 21.2709 17.5421C21.3023 17.5705 21.326 17.6065 21.3398 17.6467L21.3397 17.6467L21.3417 17.6522C21.3949 17.8022 21.4351 17.9565 21.4617 18.1135C21.4872 18.2738 21.5 18.436 21.5 18.5983C21.4873 19.3764 21.1684 20.1178 20.6129 20.6612C20.0566 21.2054 19.3083 21.5067 18.5314 21.4999Z" stroke="url(#paint0_linear_254_186)"/>
<defs>
<linearGradient id="paint0_linear_254_186" x1="7.26928" y1="7" x2="23.8512" y2="9.90771" gradientUnits="userSpaceOnUse">
<stop stop-color="white"/>
<stop offset="0.515" stop-color="white" stop-opacity="0.39"/>
<stop offset="1" stop-color="white"/>
</linearGradient>
</defs>
</svg>
