<svg width="29" height="29" viewBox="0 0 29 29" fill="none" xmlns="http://www.w3.org/2000/svg">
<rect x="1" y="1" width="27" height="27" rx="5" fill="#D9D9D9" fill-opacity="0.13"/>
<rect x="0.5" y="0.5" width="28" height="28" rx="5.5" stroke="white" stroke-opacity="0.13"/>
<path d="M15.7978 20.4117C16.0373 20.4117 16.2671 20.3172 16.4365 20.149C16.6059 19.9808 16.701 19.7526 16.701 19.5147V17.7206C16.701 17.4827 16.6059 17.2545 16.4365 17.0863C16.2671 16.918 16.0373 16.8235 15.7978 16.8235C15.5582 16.8235 15.3285 16.918 15.1591 17.0863C14.9897 17.2545 14.8945 17.4827 14.8945 17.7206V19.5147C14.8945 19.7526 14.9897 19.9808 15.1591 20.149C15.3285 20.3172 15.5582 20.4117 15.7978 20.4117ZM12.1848 20.4117C12.4243 20.4117 12.6541 20.3172 12.8235 20.149C12.9929 19.9808 13.088 19.7526 13.088 19.5147V17.7206C13.088 17.4827 12.9929 17.2545 12.8235 17.0863C12.6541 16.918 12.4243 16.8235 12.1848 16.8235C11.9452 16.8235 11.7155 16.918 11.5461 17.0863C11.3767 17.2545 11.2815 17.4827 11.2815 17.7206V19.5147C11.2815 19.7526 11.3767 19.9808 11.5461 20.149C11.7155 20.3172 11.9452 20.4117 12.1848 20.4117ZM20.314 9.64706H19.0675L17.5049 6.55221C17.4572 6.43833 17.3863 6.33546 17.2967 6.25002C17.2071 6.16457 17.1007 6.0984 16.9842 6.05564C16.8677 6.01287 16.7436 5.99443 16.6196 6.00146C16.4956 6.00849 16.3744 6.04085 16.2635 6.09651C16.1527 6.15217 16.0546 6.22994 15.9754 6.32496C15.8961 6.41997 15.8375 6.53019 15.8031 6.64873C15.7687 6.76726 15.7593 6.89157 15.7755 7.01388C15.7917 7.13618 15.8331 7.25386 15.8971 7.35956L17.0443 9.64706H10.9383L12.0854 7.35956C12.1731 7.15046 12.1779 6.91617 12.0988 6.70371C12.0197 6.49126 11.8627 6.31637 11.6591 6.21417C11.4556 6.11196 11.2207 6.09001 11.0015 6.15271C10.7824 6.21542 10.5952 6.35813 10.4776 6.55221L8.91502 9.64706H7.66854C7.03011 9.6567 6.41562 9.88993 5.93345 10.3056C5.45127 10.7213 5.13238 11.2927 5.03302 11.9191C4.93366 12.5455 5.06021 13.1867 5.39036 13.7294C5.7205 14.2722 6.23303 14.6818 6.83755 14.8859L7.50596 21.5779C7.57336 22.244 7.88834 22.8613 8.3894 23.3092C8.89045 23.757 9.5416 24.0033 10.2157 24H17.7849C18.459 24.0033 19.1102 23.757 19.6112 23.3092C20.1123 22.8613 20.4273 22.244 20.4947 21.5779L21.1631 14.8859C21.7689 14.6812 22.2822 14.2701 22.6121 13.7255C22.9421 13.1809 23.0673 12.5379 22.9656 11.9105C22.8639 11.283 22.5418 10.7115 22.0565 10.2972C21.5712 9.88295 20.9539 9.65263 20.314 9.64706ZM18.6791 21.3985C18.6567 21.6205 18.5517 21.8263 18.3847 21.9756C18.2176 22.1249 18.0006 22.207 17.7759 22.2059H10.2067C9.98197 22.207 9.76492 22.1249 9.5979 21.9756C9.43088 21.8263 9.32589 21.6205 9.30342 21.3985L8.66211 15.0294H19.3204L18.6791 21.3985ZM20.314 13.2353H7.66854C7.42898 13.2353 7.19924 13.1408 7.02985 12.9725C6.86046 12.8043 6.76529 12.5761 6.76529 12.3382C6.76529 12.1003 6.86046 11.8721 7.02985 11.7039C7.19924 11.5357 7.42898 11.4412 7.66854 11.4412H20.314C20.5536 11.4412 20.7833 11.5357 20.9527 11.7039C21.1221 11.8721 21.2173 12.1003 21.2173 12.3382C21.2173 12.5761 21.1221 12.8043 20.9527 12.9725C20.7833 13.1408 20.5536 13.2353 20.314 13.2353Z" fill="url(#paint0_linear_328_271)"/>
<defs>
<linearGradient id="paint0_linear_328_271" x1="5.32313" y1="6" x2="25.2214" y2="9.48925" gradientUnits="userSpaceOnUse">
<stop stop-color="white"/>
<stop offset="0.515" stop-color="white" stop-opacity="0.39"/>
<stop offset="1" stop-color="white"/>
</linearGradient>
</defs>
</svg>
