<svg width="180" height="138" viewBox="0 0 180 138" fill="none" xmlns="http://www.w3.org/2000/svg">
<path d="M145.534 55.6628C143.704 27.3257 123.999 0 87.8571 0C54.8014 0 29.31 24.57 27.96 57.36C9.87429 62.9871 0 82.3414 0 96.4286C0 118.119 18.0257 137.143 38.5714 137.143H66.4286C66.9969 137.143 67.5419 136.917 67.9438 136.515C68.3457 136.113 68.5714 135.568 68.5714 135C68.5714 134.432 68.3457 133.887 67.9438 133.485C67.5419 133.083 66.9969 132.857 66.4286 132.857H38.5714C20.3057 132.857 4.28571 115.834 4.28571 96.4286C4.28571 83.3528 15.7457 60 38.5714 60H45C45.5683 60 46.1134 59.7742 46.5152 59.3724C46.9171 58.9705 47.1429 58.4255 47.1429 57.8571C47.1429 57.2888 46.9171 56.7438 46.5152 56.3419C46.1134 55.94 45.5683 55.7143 45 55.7143H38.5714C36.39 55.7143 34.3286 55.9586 32.3186 56.31C33.9986 30.6386 53.5114 4.28571 87.8571 4.28571C124.663 4.28571 141.429 33.1671 141.429 60V66.4286C141.429 66.9969 141.654 67.5419 142.056 67.9438C142.458 68.3457 143.003 68.5714 143.571 68.5714C144.14 68.5714 144.685 68.3457 145.087 67.9438C145.489 67.5419 145.714 66.9969 145.714 66.4286V59.9614C158.653 61.38 175.714 75.2657 175.714 96.4286C175.714 112.826 159.896 132.857 141.429 132.857H109.286C95.4086 132.857 90 127.449 90 113.571V54.7843L107.477 72.2271C107.675 72.4321 107.911 72.5956 108.172 72.7083C108.433 72.8209 108.714 72.8804 108.999 72.8833C109.283 72.8862 109.566 72.8324 109.829 72.725C110.093 72.6176 110.332 72.4588 110.534 72.2579C110.735 72.057 110.894 71.818 111.003 71.5548C111.111 71.2916 111.165 71.0096 111.163 70.725C111.161 70.4405 111.103 70.1592 110.991 69.8977C110.879 69.6361 110.716 69.3994 110.511 69.2014L91.3929 50.1214C88.8471 47.5843 86.8714 47.5843 84.33 50.1214L65.2114 69.2014C64.8211 69.6056 64.6051 70.1469 64.61 70.7087C64.6149 71.2706 64.8402 71.808 65.2375 72.2053C65.6348 72.6026 66.1723 72.828 66.7341 72.8329C67.296 72.8377 67.8373 72.6218 68.2414 72.2314L85.7143 54.7843V113.571C85.7143 129.874 92.9829 137.143 109.286 137.143H141.429C162.201 137.143 180 114.754 180 96.4286C180 74.2843 161.901 56.9657 145.534 55.6628Z" fill="#828282"/>
</svg>
