<svg width="29" height="29" viewBox="0 0 29 29" fill="none" xmlns="http://www.w3.org/2000/svg">
<rect x="1" y="1" width="27" height="27" rx="5" fill="#D9D9D9" fill-opacity="0.13"/>
<rect x="0.5" y="0.5" width="28" height="28" rx="5.5" stroke="white" stroke-opacity="0.13"/>
<g clip-path="url(#clip0_332_1192)">
<path d="M21.1251 18.9628C21.8012 17.7515 22.1561 16.3873 22.1561 15C22.1561 13.6127 21.8012 12.2485 21.1251 11.0372C21.1216 10.9978 21.1095 10.9596 21.0898 10.9254C21.0701 10.8911 21.0432 10.8615 21.0109 10.8386C20.099 9.30153 18.7076 8.10649 17.0504 7.43722C15.3932 6.76796 13.5621 6.66153 11.8386 7.13429C10.115 7.60706 8.59444 8.63284 7.51065 10.0539C6.42686 11.475 5.83984 13.2128 5.83984 15C5.83984 16.7872 6.42686 18.525 7.51065 19.9461C8.59444 21.3672 10.115 22.3929 11.8386 22.8657C13.5621 23.3385 15.3932 23.232 17.0504 22.5628C18.7076 21.8935 20.099 20.6985 21.0109 19.1614C21.0432 19.1385 21.0701 19.1089 21.0898 19.0746C21.1095 19.0404 21.1216 19.0022 21.1251 18.9628ZM9.32552 19.2188H10.6134C10.883 20.2801 11.3759 21.2717 12.0593 22.1274C10.8574 21.479 9.89821 20.4585 9.32552 19.2188ZM6.41317 15.2813H7.81773C7.84338 16.4351 8.06439 17.5763 8.47136 18.6563H7.34636C6.77474 17.6201 6.45506 16.4639 6.41317 15.2813ZM7.34692 11.3438H8.47192C8.06495 12.4237 7.84395 13.5649 7.8183 14.7188H6.41317C6.45523 13.5361 6.77511 12.3799 7.34692 11.3438ZM18.6743 10.7813H17.3864C17.1168 9.7199 16.6238 8.72828 15.9405 7.87256C17.1424 8.52096 18.1016 9.54155 18.6743 10.7813ZM21.5866 14.7188H20.182C20.1564 13.5649 19.9354 12.4237 19.5284 11.3438H20.6534C21.225 12.3799 21.5447 13.5361 21.5866 14.7188ZM19.6195 14.7188H17.934C17.9219 13.5826 17.7873 12.4511 17.5327 11.3438H18.928C19.3594 12.4181 19.5937 13.5613 19.6195 14.7188ZM13.7186 11.3438V14.7188H10.6283C10.6433 13.5811 10.7873 12.4489 11.0575 11.3438H13.7186ZM11.2127 10.7813C11.7752 8.92894 12.6898 7.63772 13.7186 7.43606V10.7813H11.2127ZM13.7186 15.2813V18.6563H11.0575C10.7873 17.5511 10.6433 16.4189 10.6283 15.2813H13.7186ZM13.7186 19.2188V22.5639C12.6898 22.3623 11.7755 21.0711 11.2127 19.2188H13.7186ZM14.2811 18.6563V15.2813H17.3715C17.3565 16.4189 17.2125 17.5511 16.9423 18.6563H14.2811ZM16.7871 19.2188C16.2246 21.0711 15.3097 22.3623 14.2811 22.5639V19.2188H16.7871ZM14.2811 14.7188V11.3438H16.9423C17.2125 12.4489 17.3565 13.5811 17.3715 14.7188H14.2811ZM14.2811 10.7813V7.43606C15.3097 7.63772 16.224 8.92894 16.7871 10.7813H14.2811ZM12.0593 7.87256C11.3759 8.72828 10.883 9.7199 10.6134 10.7813H9.32552C9.89821 9.54155 10.8574 8.52096 12.0593 7.87256ZM10.4668 11.3438C10.2123 12.4511 10.0778 13.5826 10.0658 14.7188H8.38023C8.40602 13.5614 8.6402 12.4181 9.07155 11.3438H10.4668ZM8.38023 15.2813H10.0658C10.0778 16.4174 10.2123 17.5489 10.4668 18.6563H9.07155C8.6402 17.5819 8.40602 16.4387 8.38023 15.2813ZM15.9405 22.1274C16.6238 21.2717 17.1168 20.2801 17.3864 19.2188H18.6743C18.1016 20.4585 17.1424 21.479 15.9405 22.1274ZM17.5327 18.6563C17.7873 17.5489 17.9219 16.4174 17.934 15.2813H19.6195C19.5937 16.4387 19.3594 17.5819 18.928 18.6563H17.5327ZM20.182 15.2813H21.5866C21.5446 16.4639 21.2247 17.6201 20.6529 18.6563H19.5279C19.935 17.5763 20.1562 16.4351 20.182 15.2813ZM20.3103 10.7813H19.2936C18.8634 9.82055 18.2413 8.95799 17.4655 8.24663C18.6124 8.83792 19.5911 9.70986 20.3103 10.7813ZM10.534 8.24663C9.75837 8.95808 9.13635 9.82062 8.7062 10.7813H7.68948C8.40859 9.70987 9.38717 8.83793 10.534 8.24663ZM7.68948 19.2188H8.7062C9.13643 20.1794 9.75855 21.042 10.5343 21.7534C9.38734 21.1621 8.40867 20.2902 7.68948 19.2188ZM17.4655 21.7534C18.2413 21.042 18.8634 20.1795 19.2936 19.2188H20.3103C19.5911 20.2901 18.6124 21.1621 17.4655 21.7534Z" fill="url(#paint0_linear_332_1192)"/>
</g>
<defs>
<linearGradient id="paint0_linear_332_1192" x1="6.13275" y1="6.84375" x2="24.1695" y2="10.0073" gradientUnits="userSpaceOnUse">
<stop stop-color="white"/>
<stop offset="0.515" stop-color="white" stop-opacity="0.39"/>
<stop offset="1" stop-color="white"/>
</linearGradient>
<clipPath id="clip0_332_1192">
<rect width="18" height="18" fill="white" transform="translate(5 6)"/>
</clipPath>
</defs>
</svg>
